<svg id="圖層_1" data-name="圖層 1" xmlns="http://www.w3.org/2000/svg" xmlns:xlink="http://www.w3.org/1999/xlink" viewBox="0 0 204.44 51.16"><defs><style>.cls-1{fill:none;}.cls-2{clip-path:url(#clip-path);}.cls-3{fill:#717071;}.cls-4{fill:#b50014;}.cls-5{fill:#d7001d;}</style><clipPath id="clip-path"><rect class="cls-1" width="204.44" height="51.16"/></clipPath></defs><title>logo</title><g class="cls-2"><path class="cls-3" d="M91.15,17.07c-.45,5-1.46,9.71-3.8,13.64a19.37,19.37,0,0,0,6,5l-.1.33a4.63,4.63,0,0,0-3.8,3.57,17.15,17.15,0,0,1-4.26-5.82,22.55,22.55,0,0,1-8.47,5.76l-.23-.3a22.1,22.1,0,0,0,7.34-9.09A49.74,49.74,0,0,1,82.12,21a19.4,19.4,0,0,1-2.79,3.44l-.42-.23a49.38,49.38,0,0,0,2-8.25H78.06v3A4.79,4.79,0,0,1,76,19.7l3.28,2.4a1.37,1.37,0,0,1-.88.49V26a6.26,6.26,0,0,1-3.15.91h-.68v-.87h-7l4.9.74c-.09.39-.35.75-1.36.85-.19.42-.39.91-.62,1.43h2.93A16.47,16.47,0,0,0,73.71,27l4.58,1.13c-.13.46-.55.72-1.27.69l-.06.32h2.89v.52c-1,.19-2,.36-3.22.58a10.63,10.63,0,0,1-1.91,3.54c4.77,1.79,2.2,5.49-.3,4.65a33.59,33.59,0,0,0-3.15-1.85,27.84,27.84,0,0,1-8.9,2.92l-.19-.42a21.45,21.45,0,0,0,7.18-3.41,42,42,0,0,0-5.23-2c.26-.46.55-1,.84-1.66l-.71.1a1.44,1.44,0,0,1-1,.65l-.88-3.84c.91,0,2.28.07,3.87.1.49-1.17.88-2.27,1.1-2.95h-.22v.09c0,.23-1.17,1-3.06,1h-.68V19.8l.32.13v-4H62.11L61.85,15H63.7V10.18l4.16,1.56H69v-3l5.1.45c-.07.46-.33.78-1.21.91v1.66H74l1.62-1.69L79,12.55a1.62,1.62,0,0,1-.91.46v1.56l1-1.5s1.11.94,2,1.85c.3-2,.49-4.12.59-6.13l5.78,1.29c-.13.46-.49.75-1.23.78a39.72,39.72,0,0,1-1.66,5.3H87l2.17-3s2.47,2,3.93,3.38c-.09.36-.45.52-.91.52ZM67.47,21.32H69v-2H67.12a5.13,5.13,0,0,1-2.73.68H63.8Zm-.35,3.84H69V22.23H67.12ZM67.44,15H69V12.65H67.44Zm0,3.35H69V15.93H67.44Zm2.08,13c-.26.52-.49,1-.72,1.53a25.47,25.47,0,0,1,3,.22,11,11,0,0,0,1.14-2.27ZM72.86,15h1.37V12.65H72.86Zm1.37.91H72.86v2.44h1.37Zm1.59,3.8a4.22,4.22,0,0,1-.91.1h-.68v-.55H72.86v2h1.4Zm-1.3,2.5H72.86v2.93h1.66Zm9.65-5.16A20.4,20.4,0,0,1,82.71,20,28,28,0,0,0,85,26.88a38.79,38.79,0,0,0,1.4-9.81Z"/><path class="cls-3" d="M109,18.66c-.1.29-.36.52-1,.65V38.25c-.06.35-2,1.33-3.83,1.33h-.88V22.88A27.82,27.82,0,0,1,99.3,26L99,25.81a51.68,51.68,0,0,0,6.46-17.12l6.53,2c-.16.42-.58.68-1.33.68A38.75,38.75,0,0,1,107.23,18ZM126,33.12s2.89,2.3,4.58,3.83c-.1.36-.46.52-.94.52H108.46l-.26-.91h11.15a161.76,161.76,0,0,0,2.46-17.77l6.37,1.56c-.13.45-.45.78-1.27.81a82.74,82.74,0,0,1-7,15.4h3.54ZM108.92,16.81h14.36l2.43-3.22s2.76,2.15,4.39,3.61c-.1.36-.49.52-.94.52h-20Zm2.47,2.56c11.89,10.53,4.54,19.46,1.69,14.39.16-3.73-.07-9.64-2-14.19ZM115,8.79c10.92,1.81,6.4,10.23,2.08,6.69A14.58,14.58,0,0,0,114.77,9Z"/><path class="cls-3" d="M166.65,34.19A1.8,1.8,0,0,1,167.82,36c0,1.62-1.36,2.53-5.13,2.53h-1.82c-3,0-3.51-.87-3.51-3.64V21.32h-1.69c-.26,8.55-2.2,15.14-12.21,18.23l-.16-.33c6.72-4.45,7.63-10.55,7.53-17.9h-1.52l.09.13c-.09.36-.42.52-.87.52h-3.64v7.34c1.46-.32,3-.68,4.45-1l.06.3a94.06,94.06,0,0,1-10.19,6.79,1.48,1.48,0,0,1-1,.91l-2-5.17c.87-.13,2.34-.42,4.12-.81V22h-3.21l-.26-.91h3.47V12.75H137l-.26-.91h6.92l2.18-3.05s2.34,2,3.77,3.34H160L162.3,9s2.6,2.14,4.13,3.57c-.1.36-.46.52-1,.52H149.54l-.14-.45a1,1,0,0,1-.64.16h-3.87v8l1.53-2.57s1.1,1.14,2.08,2.24h12.76l2.34-3.28s2.63,2.21,4.16,3.67c-.1.36-.46.52-.94.52h-4.94V33.76c0,.43.1.59.55.59H164c.29,0,.42-.1.62-.46a49.63,49.63,0,0,0,1.62-5h.33Z"/><path class="cls-3" d="M202.49,22.72c-.2.26-.52.42-1.27.23a68.86,68.86,0,0,1-7.63,2.14c2.17,4.39,6.53,6.59,10.85,8l-.07.36c-1.75.39-3.05,1.82-3.7,4-4-2.73-6.47-6.1-7.8-12.15-.71.13-1.43.3-2.14.43,2.73,4.61,2.53,10.13.84,12.34-.91,1.17-2.79,1.56-5.36,1.56a4.69,4.69,0,0,0-.81-2.89,5.8,5.8,0,0,0-2.76-1.4V35c1.36.13,3.41.26,4.19.26.45,0,.81-.07,1-.36a7.09,7.09,0,0,0,.56-2.53,44.86,44.86,0,0,1-14,4.87l-.19-.42A31.92,31.92,0,0,0,188,26.88l0-.23a48.13,48.13,0,0,1-12.7,5.13l-.17-.35a34.33,34.33,0,0,0,10.79-8.9,44.48,44.48,0,0,1-10.43,3.86l-.19-.36a32.35,32.35,0,0,0,9.38-7.17H179.1l-.26-.91h14.94l2.28-2.9s1.26,1,2.56,2c.07-.88.07-2,.07-2.89H179.26c.29,2.4-.52,4.09-1.72,4.84a2.31,2.31,0,0,1-3.38-1.11A2.38,2.38,0,0,1,175.69,15a4.61,4.61,0,0,0,2.37-3.7h.39a13.82,13.82,0,0,1,.65,2h8.7l-.35-.2a6.22,6.22,0,0,0-2.11-4l.19-.16c7.15-.87,7.15,3.15,5,4.39h7.8L200.54,11l3.86,3.63c-.26.3-.58.39-1.26.43a21.35,21.35,0,0,1-4,2.47c.36.26.65.51,1,.77-.07.36-.46.53-.91.53H191a20.89,20.89,0,0,1-3.74,2.89,13.54,13.54,0,0,1,2.9,3.08,52.18,52.18,0,0,0,7.69-6Z"/><path class="cls-3" d="M64.53,44.75s.67.57,1.07,1c0,.09-.12.14-.26.14H62.11l-.06-.25h1.88Zm5.71.63a.91.91,0,0,0-.82,1,2.57,2.57,0,0,1-.61-.21l.61.47a.46.46,0,0,1-.34.17v2.41a1.73,1.73,0,0,1-1.1.27c3.1.39,1.32,2.06.39,1.25a3.84,3.84,0,0,0-2-1.23l0-.1c.48,0,.9,0,1.26,0v-.2H65.33l1.11.79c-.09.09-.26.14-.56.06a10.08,10.08,0,0,1-3.59.9l0-.09A7.91,7.91,0,0,0,65,49.27h-.43v.14c0,.08-.4.28-1.08.28h-.25V46l1.41.51h3l.59-.65a2.55,2.55,0,0,1-.57-.68c-.31.54-1,1-2.72,1.25l0-.14c1.66-.61,1.8-1.3,1.85-2.27l1.47.1c0,.11-.1.2-.29.23,0,.13,0,.26-.09.39a5.46,5.46,0,0,0,2.41.55ZM62.4,44l-.07-.24h1.25l.56-.81s.66.55,1,.91c0,.1-.12.14-.24.14Zm2.12,3.37h3.17v-.62H64.52Zm0,.84h3.17V47.6H64.52Zm3.17.24H64.52V49h3.17Zm-2.88-3.65a4.68,4.68,0,0,0,1.07-2.09l1.61.25c0,.09-.09.15-.32.15a6.28,6.28,0,0,1-.42.51h1.8l.57-.57,1,.94c-.07.07-.15.09-.34.11a6.62,6.62,0,0,1-1.21.78l-.07,0c.05-.26.1-.65.13-1H66.5a5,5,0,0,1-1.63,1Z"/><path class="cls-3" d="M75,43.83s.53.43.85.73c0,.09-.11.14-.23.14H72L72,44.45H74.5Zm-.78,1.74.46-.6s.53.41.84.7c0,.1-.11.14-.24.14H72.38l-.07-.24Zm.46.54s.53.41.84.7c0,.1-.11.14-.24.14H72.38l-.07-.24H74.2Zm0,1.23,1,.75a.55.55,0,0,1-.3.16v2a1.6,1.6,0,0,1-.9.3h-.19V50H73.5v.52c0,.11-.46.34-.92.34h-.15V47.42l1.1.44h.62Zm-1.79-4.45c2.6-.09,1.61,2,.52,1.23a2.38,2.38,0,0,0-.58-1.19Zm1.39,5.21H73.5v1.69h.73Zm5.88,1.56c.19.5.23,1,.07,1.12-.34.33-.77.18-1.12-.11-.71-.59-1-2.19-1-4h-.71v3.92c0,.08-.34.32-.95.32h-.21V46.71h-.64l-.07-.25h.71V43.77h-.65l-.07-.23H78l.57-.66,1.1.91a.74.74,0,0,1-.39.18c-.16,1.62-.17,4.85.41,5.2.09.05.13,0,.17-.09a7,7,0,0,0,.26-1h.09Zm-2.44-3.88.38.4c0-.8,0-1.63,0-2.41h-.73v2.52Z"/><path class="cls-3" d="M84.5,46.19c2.16.66,1.14,2.28.3,1.54a4.21,4.21,0,0,0-.3-1.21v4.14a1.3,1.3,0,0,1-1,.34h-.22V48a7.19,7.19,0,0,1-1.36,1.28l-.1-.09a9,9,0,0,0,1.34-3.43H82.08L82,45.53h1.27V44.24c-.45,0-.91.06-1.34.07l0-.08a10.9,10.9,0,0,0,2.58-1.5l1.34,1.18c-.12.1-.33.12-.65,0s-.44.1-.69.14V45.5l.49-.73s.59.52.92.87c0,.09-.12.14-.24.14H84.5Zm5,.77s.55.45.89.76c0,.08-.08.15-.19.17l-1.07.2v2.46c0,.12-.52.4-1,.4h-.24V48.32l-2.65.49-.12-.22,2.77-.52V43l1.54.15c0,.12-.08.22-.32.25v4.3Zm-3.69-1.11c2.66.17,1.67,2.25.6,1.48a2.48,2.48,0,0,0-.67-1.43Zm.15-2.22c2.64.31,1.62,2.36.59,1.56a2.67,2.67,0,0,0-.66-1.5Z"/><path class="cls-3" d="M99.82,46.48c-.06.11-.15.14-.37.17a6.7,6.7,0,0,1-1.4,2.26,9.4,9.4,0,0,0,2.29.86v.11A1.45,1.45,0,0,0,99.2,51a6,6,0,0,1-2-1.36A8.21,8.21,0,0,1,94.08,51l0-.09a7.42,7.42,0,0,0,2.66-2,7.17,7.17,0,0,1-1-2.54h-.56l-.08-.25h1.56V44.59H95l.28.32c0,.1-.11.14-.23.14H94v1.2l1.07-.31V46c-.27.24-.62.54-1.08.89v2.76c0,.8-.17,1.23-1.39,1.33a2,2,0,0,0-.16-.84.86.86,0,0,0-.63-.37v-.11l.84,0c.13,0,.16,0,.16-.13V47.75l-.31.21a.38.38,0,0,1-.25.26l-.5-1.4c.22,0,.6-.14,1.06-.26V45.05H92l-.07-.24h1v-2.1l1.5.14c0,.13-.11.22-.32.25v1.64l.43-.72s.24.23.48.48l0-.15h1.71V42.81l1.58.12c0,.13-.07.21-.32.25v1.17h.59l.61-.83s.71.56,1.13.93c0,.1-.13.14-.26.14H97.87v1.55H98l.7-.68Zm-4-.09a4.42,4.42,0,0,0,1.34,1.91,7.19,7.19,0,0,0,.88-1.91Z"/><path class="cls-3" d="M108.33,43.52s.78.58,1.26,1c0,.09-.13.14-.26.14h-4.1a9,9,0,0,1-.68,1.06l.36.12h2l.57-.65,1.18.91a.57.57,0,0,1-.38.21v3.39c0,.82-.19,1.28-1.57,1.41a1.7,1.7,0,0,0-.22-.91,1.15,1.15,0,0,0-.8-.42v-.1l1.14.05c.14,0,.17-.06.17-.17v-.87h-2.39a3.15,3.15,0,0,1-1.83,2.44l0-.06a6.19,6.19,0,0,0,.66-3.39V47a7.71,7.71,0,0,1-1.86,1.23l-.07-.08a9,9,0,0,0,2.36-3.46h-2.2l-.07-.25H104a12.17,12.17,0,0,0,.48-1.59l1.68.48c0,.09-.11.17-.33.18a7.72,7.72,0,0,1-.43.93h2.27ZM107,48.42V47.34h-2.32v.32a6.56,6.56,0,0,1,0,.76Zm-2.32-1.32H107v-1h-2.32Z"/><path class="cls-3" d="M119.19,47.94c-.06.1-.19.11-.36.06a7.25,7.25,0,0,1-1.44.43,4.51,4.51,0,0,0,2.14,1.39l0,.1a1.36,1.36,0,0,0-.9,1.09,3.92,3.92,0,0,1-1.51-1.64,22.66,22.66,0,0,1-1.89,1.36.82.82,0,0,1-.38.4l-.6-1.3c.36-.18.42-.29.42-.53V44.07l-.2,0a12.93,12.93,0,0,1-1.37,2,2.56,2.56,0,0,1,1.46,2.18,1.27,1.27,0,0,1-1.45,1.45,2.87,2.87,0,0,0-.12-1,.53.53,0,0,0-.31-.24v2.28c0,.08-.35.36-.94.36h-.21V43l1.26.47h.34l.6-.58.94.86V43l1.3.5h1.44l.54-.59,1.1.84a.62.62,0,0,1-.34.19v2.89c0,.06-.3.2-.63.28Zm-6.11.41a.39.39,0,0,0,.17,0c.11-.07.17-.2.17-.44a3,3,0,0,0-.56-1.8c.12-.58.28-1.62.34-2.31h-.54v4.59ZM115.84,45h1.63V43.77h-1.63Zm0,1.59h1.63V45.24h-1.63Zm0,2.94,1.21-.24a8.62,8.62,0,0,1-.68-2.46h-.53Zm.67-2.7a4.34,4.34,0,0,0,.68,1.34,9.28,9.28,0,0,0,.6-1h-.32v-.36Z"/><path class="cls-3" d="M125.3,43.94c0,.1-.17.17-.38.16a7.23,7.23,0,0,1-3.42,3.52l-.08-.07a10.73,10.73,0,0,0,2.2-4.25Zm1.19,3.69c3.78,1.33,2.62,4.39,1.21,3.19a5.74,5.74,0,0,0-.23-1.06A37.43,37.43,0,0,1,123,50.9a.74.74,0,0,1-.34.26l-.52-1.61a1.46,1.46,0,0,0,.43-.16,8.53,8.53,0,0,0,1.92-3.49l1.78.63a.35.35,0,0,1-.34.19,12.38,12.38,0,0,1-2.85,2.89c1.07,0,2.66-.07,4.26-.19a7.46,7.46,0,0,0-.94-1.74Zm1-4.24a1.32,1.32,0,0,1-.87.25,4.38,4.38,0,0,0,3,2.67l0,.1a2,2,0,0,0-1.11,1.28,5.94,5.94,0,0,1-2-4.12h-1.07l-.08-.24h.9l.36-.59Z"/><path class="cls-3" d="M136.12,44.09s.73.55,1.17.94a.24.24,0,0,1-.25.14h-5.38l-.07-.25h3.88Zm3.22-.32A.63.63,0,0,1,139,44v5.72c0,.83-.22,1.3-1.73,1.44a1.41,1.41,0,0,0-.32-.9,1.72,1.72,0,0,0-1.06-.45v-.11s1.35.08,1.6.08.22-.07.22-.2V43.75H132l-.07-.25h5.72l.59-.65Zm-3.1,5.36a1.82,1.82,0,0,1-1,.32H135v-.71h-1.53v.71c0,.11-.52.38-1,.38h-.18v-4l1.24.48h1.4l.54-.59,1.11.85a.59.59,0,0,1-.34.18ZM135,46.51h-1.53v2H135Z"/><path class="cls-4" d="M148.45,47h4.88l-.45,2.84c-.26.13-.51.25-.77.35a5,5,0,0,1-.8.27,5.86,5.86,0,0,1-.91.18,7.08,7.08,0,0,1-1.08.07,5.11,5.11,0,0,1-1.71-.27,3.54,3.54,0,0,1-1.27-.75,2.74,2.74,0,0,1-.73-1.17,3.33,3.33,0,0,1-.08-1.52,4.2,4.2,0,0,1,.58-1.61,4.46,4.46,0,0,1,1.11-1.26,4.87,4.87,0,0,1,1.51-.81,5.66,5.66,0,0,1,1.8-.29,3.32,3.32,0,0,1,1.06.16,3.68,3.68,0,0,1,.9.4,3.62,3.62,0,0,1,.7.57,3.21,3.21,0,0,1,.48.67l-.85.68a7.15,7.15,0,0,0-.4-.61,2.76,2.76,0,0,0-.46-.5,2,2,0,0,0-.57-.33,1.92,1.92,0,0,0-.69-.12,2.9,2.9,0,0,0-1.09.21,3.06,3.06,0,0,0-1,.6,3.27,3.27,0,0,0-.72,1,4.24,4.24,0,0,0-.41,1.29,3.15,3.15,0,0,0,0,1.27,2,2,0,0,0,1.23,1.49,2.77,2.77,0,0,0,1.05.2,2.52,2.52,0,0,0,.67-.09,2.34,2.34,0,0,0,.6-.28l.35-2.33h-2.88Z"/><polygon class="cls-4" points="161.31 44.51 161.27 44.8 158.21 44.8 157.85 47.05 160.94 47.05 160.85 47.57 157.77 47.57 157.38 49.99 160.45 49.99 160.35 50.62 155.78 50.62 156.75 44.51 161.31 44.51"/><polygon class="cls-4" points="168.84 44.51 168.75 44.86 165.69 44.86 165.37 47.05 168.45 47.05 168.37 47.57 165.29 47.57 164.91 49.99 167.97 49.99 167.87 50.62 163.31 50.62 164.27 44.51 168.84 44.51"/><polygon class="cls-4" points="171.88 44.51 173.38 44.51 173.04 46.69 176.29 44.51 177.11 44.51 173.5 46.99 177.11 50.62 175.29 50.62 172.83 48 172.42 50.62 170.91 50.62 171.88 44.51"/><polygon class="cls-4" points="184.71 44.51 184.66 44.82 181.6 44.82 181.25 47.05 184.28 47.06 184.19 47.58 181.16 47.57 180.78 49.99 183.84 49.99 183.75 50.62 179.18 50.62 180.15 44.51 184.71 44.51"/><path class="cls-4" d="M187.92,44.51h2.3a3.76,3.76,0,0,1,1,.12,1.75,1.75,0,0,1,.68.35,1.05,1.05,0,0,1,.36.53,1.44,1.44,0,0,1,.05.66,1.5,1.5,0,0,1-.18.5,2.06,2.06,0,0,1-.36.43,2.24,2.24,0,0,1-.49.34,3,3,0,0,1-.61.25l1.71,2.93h-1.63l-1.61-2.76L189,47.5l-.5,3.12H187ZM189,47.32h.32a1.77,1.77,0,0,0,.52-.08,1.3,1.3,0,0,0,.44-.22,1.33,1.33,0,0,0,.33-.34,1.47,1.47,0,0,0,.17-.47c0-.17,0-.53.05-.67a.8.8,0,0,0-.18-.46.89.89,0,0,0-.28-.23,1,1,0,0,0-.39-.08h-.61Z"/><path class="cls-4" d="M196.67,50.71a2.92,2.92,0,0,1-.94-.13,1.86,1.86,0,0,1-.64-.35,1.36,1.36,0,0,1-.38-.54,1.92,1.92,0,0,1-.12-.69h1a1.5,1.5,0,0,0,.09.43,1,1,0,0,0,.21.34.82.82,0,0,0,.34.23,1.22,1.22,0,0,0,.49.09,2.58,2.58,0,0,0,.39,0,1.51,1.51,0,0,0,.35-.14.92.92,0,0,0,.28-.24.82.82,0,0,0,.08-.84,1.24,1.24,0,0,0-.31-.39,3,3,0,0,0-.47-.32l-.55-.3a6.05,6.05,0,0,1-.55-.32,2.13,2.13,0,0,1-.46-.37,1.41,1.41,0,0,1-.3-.46,1.15,1.15,0,0,1,0-.59,1.66,1.66,0,0,1,.26-.68,2,2,0,0,1,.55-.53,2.67,2.67,0,0,1,.8-.36,3.53,3.53,0,0,1,1-.13,2.31,2.31,0,0,1,.82.13,1.79,1.79,0,0,1,.6.35,1.68,1.68,0,0,1,.4.52,2.26,2.26,0,0,1,.19.64h-.94a2.77,2.77,0,0,0-.12-.41,1,1,0,0,0-.21-.35,1,1,0,0,0-.35-.24,1.54,1.54,0,0,0-.52-.08,1.57,1.57,0,0,0-.51.07,1.07,1.07,0,0,0-.35.2,1.05,1.05,0,0,0-.22.26,1.25,1.25,0,0,0-.1.29.66.66,0,0,0,.08.44,1.22,1.22,0,0,0,.32.37,3.21,3.21,0,0,0,.49.33l.56.31.56.33a2.37,2.37,0,0,1,.48.38,1.38,1.38,0,0,1,.31.46,1,1,0,0,1,.05.57,1.57,1.57,0,0,1-.26.69,1.91,1.91,0,0,1-.54.56,2.74,2.74,0,0,1-.81.37,3.83,3.83,0,0,1-1.06.14"/><path class="cls-5" d="M55.65,15.26c-.11,3.45-2.78,8.33-5.62,10.44s-8.12,3.94-12.09,4.79a12.16,12.16,0,0,0-7.76,5.64c-1.08,1.84-1,3-2.7,5.37l5.32-1.76a.24.24,0,0,1,.19,0l9.06,5.94a.21.21,0,0,1-.08.39L10.52,51.47a.32.32,0,0,1-.14,0L5.87,49a.2.2,0,0,1,0-.38l6.39-2.12a11.52,11.52,0,0,1-2.74-1.37A12.65,12.65,0,0,1,4.11,32.56h0c.15-3.15-3.19-5.4-4-6.53a.36.36,0,0,1,.29-.57,27.07,27.07,0,0,1,6.23,1C9,22.92,13,19.19,17.77,13.07A11.83,11.83,0,0,0,18.93.23c-.1-.16.12-.31.25-.18A22.81,22.81,0,0,1,22.5,5.47c3,6,3.33,9.13.59,14.24-1.85,3.46-4.5,5.34-7.93,8.12-.89.71-1.84,1.49-2.83,2.38-4.83,4.28-2.89,9.53-.23,11,1.61.89,6.6,2.83,10.13-2.29,4.31-6.27-4.88-7.84-3.85-9.13.52-.65,3.88-3.13,9.6-4.94,6.69-2.11,13.91-1.86,20.05-4C53.4,19,54.46,13,54.64,11.55a.17.17,0,0,1,.29-.08c.31.41.8,1.43.72,3.79"/></g></svg>